<svg width="734" height="745" viewBox="0 0 734 745" fill="none" xmlns="http://www.w3.org/2000/svg">
<g clip-path="url(#clip0_1_2)">
<path d="M55.6667 103.6V207.333L49.5334 216.667C41.5334 228.8 26.4667 259.867 20.3334 276.4C-14.0666 370.133 -3.93331 477.6 47.5334 565.6L55.6667 579.6V642.4C55.6667 697.467 55.9334 705.333 57.6667 705.333C59.4 705.333 59.6667 697.733 59.6667 645.2V585.2L69.8 598.933C82.8667 616.667 118.733 652.267 137.267 666.133C151.8 676.933 171.133 688.933 188.333 697.867C202.067 704.933 202.6 705.467 196.067 704.8C192.733 704.533 190.333 704.8 190.333 705.6C190.333 706.4 189.4 706.667 188.333 706.133C187.267 705.733 186.333 706.133 186.333 707.067C186.333 708.133 185.8 707.867 185 706.667C184.2 705.467 183.667 705.2 183.667 706.267C183.667 707.467 182.733 707.6 180.733 706.8C178.6 706 176.6 706.4 174.333 707.867C172.6 709.067 171.533 709.333 172.067 708.533C172.6 707.6 172.067 706.533 170.867 706.133C169.8 705.733 169.133 705.867 169.533 706.533C169.933 707.067 168.733 708.267 167 709.067C164.6 710.133 163.533 710.133 162.867 709.067C162.2 708.133 162.467 708 163.667 708.667C164.733 709.333 165.133 709.2 164.467 708.267C163.667 706.933 156.467 709.6 155 711.867C154.733 712.533 152.867 712.667 151.133 712.4C148.467 711.867 147.933 712.267 148.2 714.133C148.467 715.6 149.267 716.8 150.067 716.8C151 716.933 152.067 717.2 152.733 717.333C153.267 717.467 154.067 717.6 154.733 717.467C155.267 717.467 155.667 717.867 155.667 718.4C155.667 718.933 156.733 719.467 158.067 719.6C159.267 719.733 162.733 720.133 165.667 720.667C171.4 721.467 179.667 722.667 185 723.2C186.867 723.467 194.333 724 201.667 724.533C209 725.067 217.4 725.733 220.333 726C227.4 726.667 265.667 728.667 271.933 728.533C277.667 728.533 277.533 729.2 269.533 734.933C265.4 737.867 263.667 740 263.933 741.867C264.2 743.333 265 744.667 265.667 744.933C266.467 745.2 271.8 741.733 277.533 737.333L287.933 729.333L329.533 730.133C365.8 730.8 423.8 729.333 434.333 727.467C436.2 727.067 441.533 726.533 446.333 726C451.133 725.6 457.133 724.933 459.667 724.533C462.2 724.133 465.933 723.733 468.067 723.6C470.067 723.6 471.667 723.067 471.667 722.667C471.667 722.133 473.133 722 474.867 722.267C476.6 722.667 478.467 722.267 479 721.333C479.533 720.533 480.467 720.4 481.4 721.067C484.2 723.067 491 719.733 491.4 716.133C491.667 713.733 491.133 713.2 489.267 713.6C487.8 714 486.733 713.6 486.733 712.533C486.733 711.6 487.267 711.067 487.933 711.467C488.467 711.867 489 711.6 489 710.933C489 710.133 485.667 709.867 481.4 710.133L473.667 710.667L484.333 706.267C524.6 689.467 554.867 669.2 586.733 637.6C614.333 610.4 634.733 582.533 651.667 549.2C660.867 531.067 671.267 506.267 674.2 494.933C675.4 490.533 676.467 489.2 679.4 488.533C681.4 488.133 687.4 485.6 692.867 483.067C710.733 474.533 724.333 457.6 729.533 436.933C736.2 411.2 735 372 726.867 344.133C719.667 319.2 699.667 299.333 679 296.4C675.933 296 672.733 295.333 672.067 294.8C671.4 294.4 668.467 287.333 665.667 279.333C653.133 243.733 625 197.333 599.533 170C594.6 164.8 591.667 160.533 591.933 159.067C592.2 157.6 591.533 156.667 590.2 156.667C589.133 156.667 581.933 151.067 574.467 144.267C551.8 124 522.867 103.333 504.333 94.4C501 92.8 498.333 91.2 498.333 90.8C498.333 90.2667 511.667 81.6 527.8 71.3333C543.933 61.0667 557.533 52.1333 557.933 51.6C560.867 46.8 553.933 50.8 496.333 87.2C494.2 88.6667 491.933 88.1333 481.267 83.0667C474.333 79.8667 463.267 75.3333 456.733 73.0667L445 68.9333L461.933 56.5333C510.467 20.9333 512.333 19.4667 509.933 18.9333C508.467 18.6667 506.067 19.6 504.6 20.9333C501.667 23.6 444.333 65.4667 441.533 67.0667C440.733 67.4667 436.2 66.6667 431.533 65.3333C417.133 60.9333 393.933 56.8 368.467 54L360.6 53.0667L372.733 45.2C379.533 40.9333 385 36.6667 385 35.8667C385 33.7333 382.733 34.8 368.067 44.4L355 52.9333L335.667 53.8667C287.533 56.1333 249.133 64 211.4 79.3333C154.333 102.667 103.933 141.333 68.7334 188.8L60.3334 200.133L59.9334 100.133C59.6667 12.4 59.4 -6.29997e-06 57.6667 -6.29997e-06C55.9334 -6.29997e-06 55.6667 12.6667 55.6667 103.6ZM337 63.0667C335.933 64.1333 325.667 70.8 314.333 78C282.867 98 214.6 142 167.667 172.533C144.6 187.6 125.133 200.133 124.333 200.533C123.4 200.8 123.533 201.467 124.333 202.533C125.4 203.6 126.6 203.333 129 201.733C136.733 196.267 247.533 124.4 304.867 87.7333C340.2 65.0667 344.6 62.6667 349.8 62.6667C363.267 62.6667 411.8 70.6667 424.333 75.0667L429 76.6667L418.067 84.5333C391.933 103.333 333.667 146.267 281.8 184.933L225.8 226.667H168.733H111.667V308.533C111.667 354.267 112.333 398.133 113.133 407.6C119.4 485.333 142.867 559.467 180.867 622.533C186.867 632.4 191.667 640.667 191.667 640.8C191.667 641.067 189.4 641.6 186.733 642C169.667 644.933 162.467 648.667 164.467 653.733C167.8 662.533 220.733 668.667 307.267 670.267C332.333 670.667 352.6 671.467 352.333 672C351.933 672.533 344.333 678.533 335.4 685.333C326.333 692.267 313.667 702 307.267 707.067L295.533 716.267L282.6 714C248.2 707.867 218.867 698.533 194.867 686.133C141.933 659.067 99.9334 621.467 66.6 571.733L59.6667 561.467V388.267V215.2L69.1334 202C119.133 132 190.733 85.4667 273.667 68.8C289.933 65.4667 315.4 62.5333 334.333 61.6C338.2 61.3333 338.6 61.6 337 63.0667ZM468.333 90.8L481.133 96.4L472.733 101.733C455.533 112.667 340.467 183.867 306.067 204.933L270.333 226.667L250.733 226.533C235 226.533 231.533 226.133 233.4 224.933C234.733 224 250.6 212.267 268.733 198.667C308.733 168.667 363.267 128.267 403.4 99.2L433 77.4667L444.333 81.3333C450.467 83.4667 461.267 87.6 468.333 90.8ZM492.067 101.467C512.733 112 540.467 131.2 562.067 149.733C573.533 159.733 576.067 162.667 573 162.667C572.333 162.667 552.067 172 528.067 183.467C504.067 194.933 473.267 209.333 459.8 215.467L435.267 226.667L355.8 226.4L276.333 226L281.8 223.2C289.933 218.8 458.467 114.933 477.667 102.267C484.2 98 485 98 492.067 101.467ZM585.8 172.933C614.467 205.2 637.133 240.933 652.333 278.267L658.2 292.667L612.733 293.067C587.667 293.2 567.133 293.2 566.867 292.933C566.6 292.8 566.333 277.733 566.2 259.6L565.933 226.667H505.267C471.8 226.667 445 226.133 445.667 225.6C446.467 224.933 449.667 223.333 453 222.133C459.8 219.467 533 184.933 558.333 172.4C567.533 167.867 575.667 164.133 576.333 164.133C577.133 164 581.4 168 585.8 172.933ZM55.5334 388.267L55.4 554L46.8667 536.667C4.73335 450.667 -0.99998 359.2 30.4667 274C35.2667 261.2 53.8 222.667 55.1334 222.667C55.4 222.667 55.6667 297.2 55.5334 388.267ZM183.667 300.267C183.667 334.133 183.4 361.467 183.133 361.2C182.067 360.267 170.6 315.867 166.467 297.333C163 281.733 155.667 242.667 155.667 239.733C155.667 239.067 161.933 238.667 169.667 238.667H183.667V300.267ZM221 243.733L235 248.667L235.267 366C235.533 471.733 235.4 483.067 233.533 480.667C227.267 472.4 203.4 419.067 192.2 388.267L187.667 375.867V307.333V238.667L197.4 238.8C204.867 238.8 210.067 239.867 221 243.733ZM234.333 240C234.333 241.733 232.867 241.733 230.333 240C228.733 238.933 228.867 238.667 231.4 238.667C233 238.667 234.333 239.2 234.333 240ZM349 248.4C349 257.6 348.733 258.4 345.667 259.733C343.8 260.533 342.333 262 342.333 262.8C342.333 263.733 343.533 264 345.667 263.467C349 262.667 349 262.8 349 270.667C349 275.067 348.867 278.667 348.733 278.667C348.467 278.667 324.067 270.533 294.333 260.8C255.133 247.867 240.2 242.4 239.933 240.8C239.533 238.8 244.467 238.667 294.2 238.667H349V248.4ZM395.533 239.2C394.867 239.867 354.467 257.333 353.533 257.333C353.267 257.333 353 253.067 353 248V238.667H374.6C386.467 238.667 395.8 238.933 395.533 239.2ZM553 269.333V300H483.4L413.667 300.133L383.4 290.4L353 280.667V270.933V261.2L360.067 258.267C363.8 256.667 375.133 251.733 385 247.2L403 238.933L478.067 238.8L553 238.667V269.333ZM293.933 268.267C323.133 277.867 347.533 286.267 348.333 286.933C349.8 288.267 350.2 628 348.733 628C347.267 628 311.133 589.333 298.333 574C280.733 553.067 263.4 529.467 250.733 509.467L239.667 492.133V371.467C239.667 305.067 239.933 250.667 240.333 250.667C240.733 250.667 264.867 258.533 293.933 268.267ZM369.667 293.2C388.733 299.2 387.4 298.667 384.467 300.267C380.6 302.4 384.6 304.133 391.133 303.2C394.6 302.667 397 302.933 397.533 303.867C398.067 304.667 400.333 305.333 402.733 305.333C405 305.333 439.8 316.267 479.933 329.6L553 354V390.667C553 428.533 551.667 446 546.2 478C543.267 495.6 536.333 525.067 533.667 531.333C532.467 534.267 519.133 545.6 486.867 570.8C442.333 605.733 385.667 649.733 381 653.067C378.867 654.533 377.133 653.467 365.933 643.733L353.133 632.667L353 460.133C353 322.4 353.4 287.867 354.733 288.4C355.533 288.667 362.333 290.933 369.667 293.2ZM553 324.4V346.4L491 325.867C456.867 314.533 428.067 305.333 427 305.333C425.933 305.333 425 304.8 425 304.133C425 303.6 453.8 302.933 489 302.8L553 302.533V324.4ZM659.933 306.133C663.133 306.8 663.8 308.267 667.533 321.867C681.267 371.2 682.467 415.6 671.533 465.067C668.6 478 667.933 478.933 659.8 480.533C655.667 481.333 655.4 481.067 656.2 478.267C658.6 470.133 662.467 451.067 664.467 437.333C667.4 416.8 666.467 379.6 662.6 361.6C657.533 338.8 647.667 323.467 632.867 315.467C621.533 309.2 614.467 308 589.4 308C568.867 308 566.333 307.733 566.333 305.733C566.333 303.733 569.933 303.6 611.4 304.4C636.067 304.933 657.933 305.733 659.933 306.133ZM685.8 312C692.467 314.933 701.533 322.933 705.933 329.733C717 347.333 723.133 385.067 719.8 414.533C716.6 441.6 709.133 456.533 693.267 467.067C684.333 473.067 678.333 475.867 678.333 473.733C678.467 473.2 679.267 469.067 680.333 464.667C684.467 447.867 686.733 424.667 686.733 400.667C686.733 374.4 684.6 354.8 678.467 325.6C674.333 305.6 673.8 306.8 685.8 312ZM617.267 322.533C624.467 324.8 634.333 331.867 639.133 338.267C648.2 350.267 653.133 374.4 653.133 406C653 440.933 655.667 436 623.4 461.867L595.8 484H577H558.067L558.867 479.6C563.267 455.733 566.333 409.467 565.533 376.8L565.133 358.4L568.067 358.933C569.667 359.333 580.733 362.8 592.733 366.8C611.133 372.8 614.733 373.6 615.667 372C617.8 368.667 612.867 366 592.067 359.2C581.133 355.733 570.6 352.133 568.6 351.067L564.867 349.2L565.133 334.533L565.267 319.733L588.867 320.4C601.8 320.667 614.6 321.6 617.267 322.533ZM645.667 467.867L642.2 482.533L625.667 482.933C614.733 483.2 609.533 482.933 610.467 482C615.533 476.933 648.467 451.2 648.733 452.133C649 452.667 647.533 459.733 645.667 467.867ZM662.333 494C662.333 495.733 650.6 523.733 645 535.333C623.8 579.2 590.067 621.6 553 651.067C515.533 680.933 475.933 699.333 423.4 711.2L419.667 712V699.2V686.4L426.467 691.867C430.333 694.933 433.933 697.333 434.467 697.333C437.933 697.333 434.067 693.467 419.4 682.533C410.333 675.867 402.867 670.267 402.733 670.133C402.6 670.133 408.067 669.867 414.733 669.6C449.933 668.533 505.8 662.4 520.467 658C525.667 656.533 530.867 652.933 542.467 642.933C587.933 603.6 619.933 560.133 640.467 509.333C646.6 494.267 647.133 493.733 657.4 493.467C660.067 493.333 662.333 493.6 662.333 494ZM633.667 511.467C614.333 557.467 584.467 598.933 546.067 633.067L530.6 646.667L522.867 644.8C518.467 643.733 511.533 642.533 507.4 642C503.133 641.467 499.667 640.933 499.667 640.533C499.667 640.267 501.667 636.933 504.067 633.067C518.067 610.933 530.467 584 540.333 554.267L547.4 533.067L561.133 521.733C568.733 515.467 579 507.067 583.933 503.2L592.733 496L615.933 495.733C628.6 495.467 639.133 495.733 639.4 496.133C639.533 496.533 637 503.467 633.667 511.467ZM565.133 509.333C557 515.867 550.067 521.333 549.8 521.333C549.667 521.333 550.733 516 552.2 509.333L555 497.333H567.4H579.933L565.133 509.333ZM524.333 562.267C513.8 590.933 482.867 647.333 476.2 649.867C470.6 652 389.933 656.4 390.6 654.533C390.867 654.133 396.467 649.6 403 644.667C416.2 634.533 487.267 579.467 512.333 559.733C521.133 552.8 528.467 547.6 528.733 548.133C529 548.667 527 554.933 524.333 562.267ZM407 678L417 685.467V699.2V712.8L396.733 715.2C372.6 718 331.133 719.333 317 717.733L307 716.667L336.333 693.733L365.667 670.8L381.4 670.667H397L407 678ZM487.667 716.8C487.667 717.867 485.133 718.533 484.467 717.6C484.067 716.933 484.6 716.4 485.667 716.4C486.733 716.4 487.667 716.667 487.667 716.8Z" fill="black"/>
<path d="M494.467 712.933C494.6 713.467 494.467 714.267 494.333 714.667C494.2 715.067 493.933 716.4 493.667 717.6C493.267 719.733 493.533 719.733 496.467 717.733C500.2 715.333 500.6 714.4 497.4 715.6C496.067 716.133 495.533 715.867 496.2 714.933C496.6 714.133 496.467 713.067 495.667 712.667C494.867 712.133 494.333 712.267 494.467 712.933Z" fill="black"/>
</g>
<defs>
<clipPath id="clip0_1_2">
<rect width="734" height="745" fill="white"/>
</clipPath>
</defs>
</svg>
